<svg width="113" height="20" viewBox="0 0 113 20" fill="none" xmlns="http://www.w3.org/2000/svg">
<path d="M6.044 19.24C4.82 19.24 3.772 19.048 2.9 18.664C2.036 18.272 1.372 17.684 0.908 16.9C0.444 16.116 0.212 15.14 0.212 13.972C0.212 13.812 0.212 13.676 0.212 13.564C0.212 13.452 0.212 13.316 0.212 13.156H2.264C2.264 13.308 2.264 13.436 2.264 13.54C2.264 13.644 2.264 13.776 2.264 13.936C2.264 15.16 2.584 16.044 3.224 16.588C3.864 17.124 4.796 17.392 6.02 17.392C7.284 17.392 8.24 17.176 8.888 16.744C9.536 16.312 9.86 15.612 9.86 14.644C9.86 13.964 9.672 13.4 9.296 12.952C8.928 12.496 8.416 12.112 7.76 11.8C7.104 11.48 6.34 11.188 5.468 10.924C4.484 10.62 3.604 10.236 2.828 9.772C2.06 9.308 1.452 8.736 1.004 8.056C0.564 7.368 0.344 6.532 0.344 5.548C0.344 4.588 0.576 3.776 1.04 3.112C1.512 2.448 2.168 1.944 3.008 1.6C3.848 1.256 4.824 1.084 5.936 1.084C7.112 1.084 8.132 1.268 8.996 1.636C9.868 1.996 10.54 2.548 11.012 3.292C11.492 4.028 11.732 4.956 11.732 6.076C11.732 6.252 11.732 6.404 11.732 6.532C11.732 6.652 11.732 6.8 11.732 6.976H9.68C9.68 6.824 9.68 6.688 9.68 6.568C9.68 6.448 9.68 6.312 9.68 6.16C9.68 4.992 9.364 4.164 8.732 3.676C8.1 3.18 7.18 2.932 5.972 2.932C4.812 2.932 3.916 3.136 3.284 3.544C2.652 3.952 2.336 4.62 2.336 5.548C2.336 6.244 2.528 6.82 2.912 7.276C3.304 7.724 3.836 8.108 4.508 8.428C5.18 8.74 5.948 9.04 6.812 9.328C7.86 9.672 8.76 10.064 9.512 10.504C10.272 10.936 10.852 11.476 11.252 12.124C11.66 12.772 11.864 13.588 11.864 14.572C11.864 15.556 11.628 16.396 11.156 17.092C10.692 17.788 10.024 18.32 9.152 18.688C8.288 19.056 7.252 19.24 6.044 19.24ZM15.0419 19V6.256H17.0579V19H15.0419ZM16.0619 3.328C15.6859 3.328 15.3579 3.224 15.0779 3.016C14.8059 2.8 14.6699 2.508 14.6699 2.14C14.6699 1.78 14.8059 1.496 15.0779 1.288C15.3579 1.072 15.6859 0.964 16.0619 0.964C16.4379 0.964 16.7619 1.072 17.0339 1.288C17.3059 1.496 17.4419 1.78 17.4419 2.14C17.4419 2.508 17.3059 2.8 17.0339 3.016C16.7619 3.224 16.4379 3.328 16.0619 3.328ZM20.8516 19V6.256H22.8916V10.168L22.2196 9.928C22.2676 9.456 22.3876 8.992 22.5796 8.536C22.7716 8.072 23.0356 7.656 23.3716 7.288C23.7156 6.912 24.1436 6.616 24.6556 6.4C25.1676 6.176 25.7676 6.064 26.4556 6.064C26.9676 6.064 27.3836 6.108 27.7036 6.196C28.0316 6.276 28.2356 6.34 28.3156 6.388L27.7876 8.392C27.7076 8.336 27.5436 8.264 27.2956 8.176C27.0556 8.088 26.7116 8.044 26.2636 8.044C25.5996 8.044 25.0476 8.164 24.6076 8.404C24.1756 8.644 23.8316 8.964 23.5756 9.364C23.3276 9.756 23.1516 10.184 23.0476 10.648C22.9436 11.112 22.8916 11.572 22.8916 12.028V19H20.8516ZM37.1319 1.3C38.3719 1.3 39.3879 1.472 40.1799 1.816C40.9799 2.16 41.5719 2.656 41.9559 3.304C42.3399 3.944 42.5319 4.7 42.5319 5.572C42.5319 6.444 42.3599 7.188 42.0159 7.804C41.6719 8.412 41.2359 8.884 40.7079 9.22C40.1799 9.548 39.6439 9.732 39.0999 9.772C39.6679 9.788 40.2519 9.936 40.8519 10.216C41.4519 10.488 41.9559 10.932 42.3639 11.548C42.7719 12.156 42.9759 12.968 42.9759 13.984C42.9759 14.944 42.7799 15.804 42.3879 16.564C42.0039 17.316 41.3839 17.912 40.5279 18.352C39.6719 18.784 38.5279 19 37.0959 19H30.1359V1.3H37.1319ZM33.6999 9.496L32.4639 8.452H35.9919C36.9359 8.452 37.6439 8.252 38.1159 7.852C38.5879 7.444 38.8239 6.896 38.8239 6.208C38.8239 5.744 38.7239 5.364 38.5239 5.068C38.3239 4.764 38.0279 4.54 37.6359 4.396C37.2439 4.252 36.7599 4.18 36.1839 4.18H32.0199L33.6999 2.404V9.496ZM36.3759 16.108C37.2879 16.108 37.9799 15.9 38.4519 15.484C38.9319 15.06 39.1719 14.488 39.1719 13.768C39.1719 13.36 39.0999 13.004 38.9559 12.7C38.8199 12.396 38.6239 12.144 38.3679 11.944C38.1119 11.736 37.7999 11.58 37.4319 11.476C37.0719 11.364 36.6719 11.308 36.2319 11.308H32.4639L33.6999 10.276V17.884L32.0199 16.108H36.3759ZM49.8189 19.264C48.8909 19.264 48.0629 19.116 47.3349 18.82C46.6149 18.524 46.0509 18.096 45.6429 17.536C45.2349 16.976 45.0309 16.296 45.0309 15.496C45.0309 14.592 45.2789 13.856 45.7749 13.288C46.2709 12.72 46.9269 12.288 47.7429 11.992C48.5669 11.688 49.4589 11.488 50.4189 11.392C51.8189 11.256 52.7829 11.132 53.3109 11.02C53.8469 10.908 54.1149 10.712 54.1149 10.432C54.1149 10.424 54.1149 10.416 54.1149 10.408C54.1149 9.936 53.8869 9.564 53.4309 9.292C52.9829 9.02 52.3549 8.884 51.5469 8.884C50.6909 8.884 50.0349 9.04 49.5789 9.352C49.1309 9.656 48.9069 10.124 48.9069 10.756H45.2469C45.2469 9.732 45.5229 8.868 46.0749 8.164C46.6349 7.46 47.3909 6.928 48.3429 6.568C49.2949 6.2 50.3709 6.016 51.5709 6.016C52.6909 6.016 53.7269 6.188 54.6789 6.532C55.6309 6.868 56.3949 7.376 56.9709 8.056C57.5549 8.736 57.8469 9.6 57.8469 10.648C57.8469 10.816 57.8469 10.984 57.8469 11.152C57.8469 11.312 57.8469 11.476 57.8469 11.644V16.156C57.8469 16.484 57.8549 16.8 57.8709 17.104C57.8949 17.4 57.9429 17.672 58.0149 17.92C58.0949 18.2 58.1949 18.432 58.3149 18.616C58.4349 18.8 58.5349 18.928 58.6149 19H54.9549C54.8989 18.944 54.8109 18.828 54.6909 18.652C54.5789 18.476 54.4829 18.272 54.4029 18.04C54.3069 17.76 54.2349 17.48 54.1869 17.2C54.1469 16.912 54.1269 16.576 54.1269 16.192L54.8949 16.72C54.6709 17.248 54.3069 17.704 53.8029 18.088C53.3069 18.464 52.7149 18.756 52.0269 18.964C51.3469 19.164 50.6109 19.264 49.8189 19.264ZM50.8149 16.48C51.3989 16.48 51.9429 16.376 52.4469 16.168C52.9589 15.952 53.3749 15.616 53.6949 15.16C54.0149 14.704 54.1749 14.108 54.1749 13.372V12.088L55.0989 12.988C54.5709 13.18 53.9589 13.34 53.2629 13.468C52.5749 13.588 51.8869 13.684 51.1989 13.756C50.3829 13.836 49.7709 13.976 49.3629 14.176C48.9629 14.368 48.7629 14.696 48.7629 15.16C48.7629 15.6 48.9349 15.932 49.2789 16.156C49.6229 16.372 50.1349 16.48 50.8149 16.48ZM60.5692 19V6.256H64.3012V10.648L63.5332 10.168C63.6212 9.568 63.7812 9.016 64.0132 8.512C64.2452 8.008 64.5452 7.572 64.9132 7.204C65.2812 6.828 65.7172 6.536 66.2212 6.328C66.7332 6.12 67.3172 6.016 67.9732 6.016C68.4852 6.016 68.8852 6.056 69.1732 6.136C69.4692 6.208 69.6532 6.264 69.7252 6.304L69.1132 9.64C69.0412 9.6 68.8812 9.536 68.6332 9.448C68.3852 9.36 68.0652 9.316 67.6732 9.316C67.0332 9.316 66.4972 9.424 66.0652 9.64C65.6332 9.856 65.2852 10.144 65.0212 10.504C64.7652 10.856 64.5812 11.248 64.4692 11.68C64.3572 12.112 64.3012 12.548 64.3012 12.988V19H60.5692ZM79.2763 19.276C78.2683 19.276 77.3443 19.008 76.5043 18.472C75.6643 17.936 74.9923 17.212 74.4883 16.3C73.9843 15.38 73.7323 14.348 73.7323 13.204C73.7323 13.172 73.7323 13.144 73.7323 13.12C73.7323 13.088 73.7323 13.052 73.7323 13.012L75.3403 12.976C75.3403 13 75.3403 13.024 75.3403 13.048C75.3403 13.072 75.3403 13.096 75.3403 13.12C75.3403 13.712 75.4843 14.232 75.7723 14.68C76.0603 15.12 76.4323 15.46 76.8883 15.7C77.3443 15.94 77.8203 16.06 78.3163 16.06C79.1323 16.06 79.8403 15.78 80.4403 15.22C81.0483 14.652 81.3523 13.768 81.3523 12.568C81.3523 11.368 81.0523 10.496 80.4523 9.952C79.8523 9.4 79.1403 9.124 78.3163 9.124C77.8203 9.124 77.3443 9.244 76.8883 9.484C76.4323 9.716 76.0603 10.048 75.7723 10.48C75.4843 10.912 75.3403 11.428 75.3403 12.028L73.7323 11.932C73.7323 10.78 73.9843 9.764 74.4883 8.884C74.9923 7.996 75.6643 7.3 76.5043 6.796C77.3443 6.284 78.2683 6.028 79.2763 6.028C80.3083 6.028 81.2723 6.28 82.1683 6.784C83.0643 7.288 83.7883 8.028 84.3403 9.004C84.9003 9.98 85.1803 11.168 85.1803 12.568C85.1803 14.032 84.9083 15.264 84.3643 16.264C83.8203 17.256 83.1003 18.008 82.2043 18.52C81.3083 19.024 80.3323 19.276 79.2763 19.276ZM71.6083 19V0.243999H75.3403V19H71.6083ZM88.9269 13.744V11.284H97.3749L97.0149 11.908C97.0149 11.844 97.0149 11.784 97.0149 11.728C97.0149 11.664 97.0149 11.604 97.0149 11.548C97.0149 11.092 96.9069 10.656 96.6909 10.24C96.4749 9.816 96.1389 9.472 95.6829 9.208C95.2349 8.936 94.6589 8.8 93.9549 8.8C93.2509 8.8 92.6429 8.952 92.1309 9.256C91.6269 9.552 91.2389 9.98 90.9669 10.54C90.7029 11.1 90.5709 11.776 90.5709 12.568C90.5709 13.384 90.6989 14.084 90.9549 14.668C91.2189 15.244 91.6069 15.688 92.1189 16C92.6389 16.312 93.2829 16.468 94.0509 16.468C94.5469 16.468 94.9749 16.424 95.3349 16.336C95.6949 16.24 95.9869 16.12 96.2109 15.976C96.4429 15.832 96.6189 15.672 96.7389 15.496C96.8589 15.32 96.9309 15.148 96.9549 14.98H100.627C100.579 15.516 100.395 16.044 100.075 16.564C99.7549 17.076 99.3109 17.54 98.7429 17.956C98.1749 18.364 97.4829 18.688 96.6669 18.928C95.8589 19.168 94.9349 19.288 93.8949 19.288C92.4869 19.288 91.2589 19.008 90.2109 18.448C89.1629 17.88 88.3509 17.1 87.7749 16.108C87.1989 15.108 86.9109 13.956 86.9109 12.652C86.9109 11.332 87.2029 10.176 87.7869 9.184C88.3789 8.184 89.1989 7.408 90.2469 6.856C91.3029 6.296 92.5229 6.016 93.9069 6.016C95.3229 6.016 96.5469 6.3 97.5789 6.868C98.6109 7.428 99.4069 8.216 99.9669 9.232C100.527 10.24 100.807 11.416 100.807 12.76C100.807 12.96 100.803 13.152 100.795 13.336C100.787 13.52 100.775 13.656 100.759 13.744H88.9269ZM103.132 19V6.256H106.864V10.648L106.096 10.168C106.184 9.568 106.344 9.016 106.576 8.512C106.808 8.008 107.108 7.572 107.476 7.204C107.844 6.828 108.28 6.536 108.784 6.328C109.296 6.12 109.88 6.016 110.536 6.016C111.048 6.016 111.448 6.056 111.736 6.136C112.032 6.208 112.216 6.264 112.288 6.304L111.676 9.64C111.604 9.6 111.444 9.536 111.196 9.448C110.948 9.36 110.628 9.316 110.236 9.316C109.596 9.316 109.06 9.424 108.628 9.64C108.196 9.856 107.848 10.144 107.584 10.504C107.328 10.856 107.144 11.248 107.032 11.68C106.92 12.112 106.864 12.548 106.864 12.988V19H103.132Z" fill="white"/>
</svg>
