<svg width="24" height="24" viewBox="0 0 24 24" fill="none" xmlns="http://www.w3.org/2000/svg">
<path d="M16.6004 14C16.4004 13.9 15.1004 13.3 14.9004 13.2C14.7004 13.1 14.5004 13.1 14.3004 13.3C14.1004 13.5 13.7004 14.1 13.5004 14.3C13.4004 14.5 13.2004 14.5 13.0004 14.4C12.3004 14.1 11.6004 13.7 11.0004 13.2C10.5004 12.7 10.0004 12.1 9.60039 11.5C9.50039 11.3 9.60039 11.1 9.70039 11C9.80039 10.9 9.90039 10.7 10.1004 10.6C10.2004 10.5 10.3004 10.3 10.3004 10.2C10.4004 10.1 10.4004 9.90004 10.3004 9.80004C10.2004 9.70004 9.70039 8.50004 9.50039 8.00004C9.40039 7.30004 9.20039 7.30004 9.00039 7.30004C8.90039 7.30004 8.70039 7.30004 8.50039 7.30004C8.30039 7.30004 8.00039 7.50004 7.90039 7.60004C7.30039 8.20004 7.00039 8.90004 7.00039 9.70004C7.10039 10.6 7.40039 11.5 8.00039 12.3C9.10039 13.9 10.5004 15.2 12.2004 16C12.7004 16.2 13.1004 16.4 13.6004 16.5C14.1004 16.7 14.6004 16.7 15.2004 16.6C15.9004 16.5 16.5004 16 16.9004 15.4C17.1004 15 17.1004 14.6 17.0004 14.2C17.0004 14.2 16.8004 14.1 16.6004 14ZM19.1004 4.90004C15.2004 1.00004 8.90039 1.00004 5.00039 4.90004C1.80039 8.10004 1.20039 13 3.40039 16.9L2.00039 22L7.30039 20.6C8.80039 21.4 10.4004 21.8 12.0004 21.8C17.5004 21.8 21.9004 17.4 21.9004 11.9C22.0004 9.30004 20.9004 6.80004 19.1004 4.90004ZM16.4004 18.9C15.1004 19.7 13.6004 20.2 12.0004 20.2C10.5004 20.2 9.10039 19.8 7.80039 19.1L7.50039 18.9L4.40039 19.7L5.20039 16.7L5.00039 16.4C2.60039 12.4 3.80039 7.40004 7.70039 4.90004C11.6004 2.40004 16.6004 3.70004 19.0004 7.50004C21.4004 11.4 20.3004 16.5 16.4004 18.9Z" fill="white"/>
</svg>
